<?xml version="1.0" encoding="UTF-8" standalone="no"?>
<svg
   xmlns:dc="http://purl.org/dc/elements/1.1/"
   xmlns:cc="http://creativecommons.org/ns#"
   xmlns:rdf="http://www.w3.org/1999/02/22-rdf-syntax-ns#"
   xmlns:svg="http://www.w3.org/2000/svg"
   xmlns="http://www.w3.org/2000/svg"
   id="svg10"
   version="1.1"
   viewBox="0 0 841.9 595.3">
  <metadata
     id="metadata16">
    <rdf:RDF>
      <cc:Work
         rdf:about="">
        <dc:format>image/svg+xml</dc:format>
        <dc:type
           rdf:resource="http://purl.org/dc/dcmitype/StillImage" />
        <dc:title></dc:title>
      </cc:Work>
    </rdf:RDF>
  </metadata>
  <defs
     id="defs14" />
  <g
     transform="translate(0,-6.9000947)"
     id="g839">
    <rect
       style="opacity:1;fill:#cccccc;fill-opacity:1;stroke:none;stroke-width:119.27231598;stroke-linecap:butt;stroke-linejoin:round;stroke-miterlimit:4;stroke-dasharray:none;stroke-dashoffset:0;stroke-opacity:0.96666715"
       id="rect968-4"
       width="383.7601"
       height="429.26199"
       x="240.61252"
       y="118.91233"
       rx="0"
       ry="0" />
    <rect
       style="opacity:1;fill:#999999;fill-opacity:1;stroke:none;stroke-width:39.64343262;stroke-linecap:butt;stroke-linejoin:round;stroke-miterlimit:4;stroke-dasharray:none;stroke-dashoffset:0;stroke-opacity:0.96666715"
       id="rect968"
       width="42.172112"
       height="431.53931"
       x="191.51321"
       y="112.22748"
       rx="0"
       ry="0" />
    <path
       id="path824"
       d="m 651.49546,500.75353 a 18.003323,18.003323 0 0 0 9.89275,-16.02904 V 86.191206 A 18.885359,18.885359 0 0 0 642.503,67.305667 H 230.4244 a 43.253301,43.253301 0 0 0 -36.01835,19.308972 v 0 a 17.124006,17.124006 0 0 0 14.25935,26.605031 h 34.5254 l 19.33681,-0.17133 H 624.37266 V 548.17396 H 208.66087 A 17.137605,17.137605 0 0 1 191.51329,531.40349 V 99.702674"
       style="fill:none;stroke:#000000;stroke-width:18.13023376;stroke-linecap:round;stroke-linejoin:round" />
    <line
       id="line822"
       y2="538.69189"
       y1="121.6965"
       x2="235.32803"
       x1="235.32803"
       style="fill:none;stroke:#000000;stroke-width:18.13023376;stroke-linecap:round;stroke-linejoin:round" />
  </g>
</svg>
